<?xml version="1.0" encoding="UTF-8" standalone="no"?>
<!-- Created with Inkscape (http://www.inkscape.org/) -->

<svg
   width="111.84317mm"
   height="99.982323mm"
   viewBox="0 0 111.84317 99.982323"
   version="1.1"
   id="svg5"
   xml:space="preserve"
   xmlns:xlink="http://www.w3.org/1999/xlink"
   xmlns="http://www.w3.org/2000/svg"
   xmlns:svg="http://www.w3.org/2000/svg"><defs
     id="defs2"><linearGradient
       id="linearGradient7364"><stop
         style="stop-color:#5d4949;stop-opacity:0;"
         offset="0.82928437"
         id="stop7362" /><stop
         style="stop-color:#1f1818;stop-opacity:1;"
         offset="1"
         id="stop7360" /></linearGradient><linearGradient
       id="linearGradient7354"><stop
         style="stop-color:#000000;stop-opacity:1;"
         offset="0"
         id="stop7350" /><stop
         style="stop-color:#2b1100;stop-opacity:0;"
         offset="1"
         id="stop7352" /></linearGradient><linearGradient
       xlink:href="#linearGradient7354"
       id="linearGradient49"
       gradientUnits="userSpaceOnUse"
       gradientTransform="matrix(1.0776235,0,0,1.0581563,-135.36495,8.1224098)"
       x1="64.512955"
       y1="228.41925"
       x2="90.194344"
       y2="228.41925" /><linearGradient
       xlink:href="#linearGradient7364"
       id="linearGradient50"
       gradientUnits="userSpaceOnUse"
       gradientTransform="translate(-130.35722,21.106207)"
       x1="21.127325"
       y1="217.46964"
       x2="124.05099"
       y2="217.46964" /><linearGradient
       xlink:href="#linearGradient7364"
       id="linearGradient51"
       gradientUnits="userSpaceOnUse"
       gradientTransform="translate(-130.35722,21.106207)"
       x1="21.127325"
       y1="217.46964"
       x2="124.05099"
       y2="217.46964" /></defs><g
     id="layer1"
     transform="translate(111.4139,-192.8655)"><path
       id="path1"
       style="fill:#d7f4ee;fill-opacity:1;stroke-width:0.270398"
       d="m -78.809799,192.86644 c -0.143394,-0.012 -0.209781,0.0917 -0.284661,0.2873 -0.103384,0.27013 -0.719605,1.19048 -1.369419,2.04541 -1.497943,1.97079 -2.296434,2.23259 -3.318707,1.08846 -0.402302,-0.45025 -0.79096,-0.98558 -0.863479,-1.18985 -0.171508,-0.48311 -0.03771,-0.70489 -2.344865,3.88749 -2.111405,4.20267 -2.584519,4.67301 -3.266423,3.24478 l -0.355434,-0.7436 -0.202269,0.676 c -0.232382,0.77682 -2.017799,2.53311 -1.928581,3.59359 -0.347203,2.34268 0.636292,4.9971 1.566404,7.90911 1.166428,1.23908 0.224288,7.23362 0.663224,10.50575 l -2.167425,2.84282 -0.292579,2.5334 v 5.3e-4 l -3.906514,5.15025 -4.270913,7.49826 -4.20966,4.36492 -6.0528,11.17716 c 2.05639,3.71424 3.77697,6.69232 5.61869,9.14495 11.463594,15.60026 29.665158,24.81633 49.024446,24.82276 20.6684,-0.002 42.56939,-8.37567 53.7774804,-25.7412 0.37933,-0.58215 0.33705,-1.20527 -0.0105,-2.45101 -3.31605,-4.00991 -7.0821904,-7.54512 -7.7829304,-14.31473 l 0.0333,-3.65935 -1.45498,-5.46712 -0.86189,-3.86373 1.4275,-2.29416 4.3380004,-3.32981 1.26062,-4.1975 0.0354,-1.10008 c 0.38021,-0.44754 0.6817,-1.04061 1.01769,-1.92818 0.29887,-0.78957 0.85675,-1.84569 1.2395,-2.34749 0.69121,-0.90623 0.88129,-1.48409 0.49274,-1.49564 -0.11154,-0.003 -0.4806,-0.21978 -0.82018,-0.48112 -0.5762,-0.44343 -0.59143,-0.52844 -0.23026,-1.27805 0.80596,-1.67272 0.81545,-2.02007 0.055,-2.02007 -0.44938,0 -2.14364,-0.61173 -2.84378,-1.31188 -1.13572,-1.13572 -0.9521,-2.89661 -0.41638,-3.43232 0.42276,-0.42276 -9.4667304,-0.26851 -10.9743404,0.15014 -1.51275,0.4201 -2.89612,-0.60676 -2.89612,-1.75445 v -0.95009 l -1.01399,0.60048 c -3.79337,2.24603 -5.24123,3.34374 -5.38947,4.08502 -0.0843,0.42176 -0.18981,0.76683 -0.23396,0.76683 -0.0442,0 -1.0936,-0.52105 -2.33219,-1.15764 -2.74251,-1.40957 -4.38187,-2.12663 -5.3842,-2.34644 -0.67795,-0.34978 -1.36269,-0.66623 -2.0433,-0.96436 -0.68014,-0.29792 -1.35559,-0.57968 -2.01373,-0.8603 h -5.3e-4 l -1.92605,-0.22551 h -5.3e-4 l -2.3005,-0.46844 -2.91733,-0.59362 0.63743,-0.31422 c -6.68756,-1.98582 -9.32235,-2.52775 -15.144975,-1.31133 -2.431315,1.16205 -3.191713,-1.00395 -3.888378,-3.14094 -1.19742,-3.67909 -4.212558,-5.56946 -6.132495,-6.61313 l -1.333507,-0.72511 -0.332714,0.79271 c -0.454596,1.08115 -0.948681,0.99674 -2.240297,-0.3813 -0.604786,-0.64527 -1.646896,-1.56594 -2.315279,-2.04595 -0.622405,-0.44697 -0.9342,-0.65317 -1.118564,-0.66859 z" /><path
       style="fill:url(#linearGradient51);fill-opacity:1;stroke-width:0.264583"
       d="m -109.2299,257.56643 5.3562,-8.89258 4.119442,-4.27119 4.17869,-7.33718 3.82311,-5.03987 0.28624,-2.47902 2.88679,-3.81046 -0.18803,-14.58492 0.9419,-4.40414 c 2.30573,-5.26746 7.17731,-5.41651 12.64802,-4.37038 4.44911,1.64813 8.93926,3.19296 12.06165,8.18084 3.081484,-0.99589 8.966624,-0.68395 13.825574,-0.85069 l 7.68669,1.56392 1.88514,0.22098 c 2.51455,1.07216 5.28535,2.14549 7.59396,4.21828 7.88076,8.33694 15.45979,8.91025 21.83058,1.5208 l 1.2039904,3.68635 c -0.0616,1.98152 1.89463,3.68627 -0.19129,5.94545 -0.40919,1.35528 -1.0900604,2.63796 -2.0157504,3.85522 l -3.46286,3.51031 -1.39634,2.24459 0.84288,3.78069 1.24573,5.34707 0.14583,3.58344 c 0.68567,6.62404 4.3707904,10.08304 7.6155304,14.00673 -18.2353304,16.5073 -29.5155304,11.91634 -72.9769444,10.14347 -15.15633,-2.33589 -23.601442,-8.45929 -29.946732,-15.76775 z"
       id="path2" /><path
       style="fill:url(#linearGradient50);fill-opacity:1;stroke-width:0.264583"
       d="m -109.2299,257.56643 5.3562,-8.89258 4.119442,-4.27119 4.17869,-7.33718 3.82311,-5.03987 0.28624,-2.47902 2.88679,-3.81046 -0.18803,-14.58492 0.9419,-4.40414 c 2.30573,-5.26746 7.17731,-5.41651 12.64802,-4.37038 4.44911,1.64813 8.93926,3.19296 12.06165,8.18084 3.081484,-0.99589 8.966624,-0.68395 13.825574,-0.85069 l 7.68669,1.56392 1.88514,0.22098 c 2.51455,1.07216 5.28535,2.14549 7.59396,4.21828 5.70612,1.25564 -0.5623,11.82616 21.83058,1.52084 l 1.2039904,3.68635 -0.19129,5.94545 -2.1328904,3.7812 -3.34572,3.58433 -1.39634,2.24459 0.84288,3.78069 1.2465,5.33757 0.14506,3.59294 c 0.68567,6.62404 4.3707904,10.08304 7.6155304,14.00673 -18.2353304,16.5073 -29.5155304,11.91634 -72.9769444,10.14347 -15.15633,-2.33589 -23.601442,-8.45929 -29.946732,-15.76775 z"
       id="path3" /><path
       id="path4"
       style="fill:#483737;fill-opacity:1;stroke-width:0.264583"
       d="m -80.070888,201.86576 c -3.37163,0.0577 -6.16938,1.25998 -7.75456,4.88136 l -0.94206,4.40386 0.1881,14.58516 -2.88665,3.81062 -0.28629,2.47892 -3.82302,5.04 -4.17907,7.33702 -4.119132,4.27106 -5.92264,10.9368 c 2.01217,3.63437 3.69575,6.54839 5.49786,8.94829 11.217092,15.2648 29.027212,24.28267 47.970206,24.28896 20.22396,-0.002 39.06502,-10.26669 50.0320904,-27.2588 0.37117,-0.56963 0.32983,-1.17935 -0.0103,-2.39831 -3.24474,-3.92368 -6.9298804,-7.38286 -7.6155504,-14.0069 l -0.16387,-3.61195 -1.22721,-5.31825 -0.84336,-3.78065 1.39681,-2.24482 3.47634,-3.70509 2.0018804,-3.66035 0.1912,-5.94538 -1.2035404,-3.68659 c -6.76461,2.13253 -13.21523,10.56319 -21.83071,-1.52085 -2.30861,-2.07279 -5.0793,-3.14619 -7.59385,-4.21835 l -1.88516,-0.22066 -7.68687,-1.56424 c -4.85894,0.16674 -10.74403,-0.14478 -13.825514,0.85111 -3.12239,-4.98788 -7.61269,-6.53277 -12.0618,-8.1809 -1.70959,-0.32691 -3.36068,-0.53732 -4.89324,-0.51108 z" /><path
       id="path5"
       style="fill:#6c5353;stroke-width:0.264583"
       d="m -77.893032,196.13376 c -0.140309,-0.0117 -0.205266,0.0897 -0.278536,0.28112 -0.101167,0.26432 -0.704135,1.16488 -1.33997,2.00143 -1.465734,1.92841 -2.247056,2.18457 -3.247347,1.06505 -0.393652,-0.44057 -0.77395,-0.96439 -0.84491,-1.16427 -0.167815,-0.47272 -0.03686,-0.68972 -2.294433,3.80391 -2.066003,4.1123 -2.52894,4.57251 -3.196188,3.175 l -0.347782,-0.72761 -0.197921,0.66146 c -0.449271,1.50186 -1.006338,3.7981 -0.275567,5.78796 0.180334,0.49104 0.628626,1.34541 0.730193,1.73467 l 0.606291,12.98361 -2.887162,3.81062 -0.286287,2.47892 0.33538,4.75682 -3.38274,9.94823 c -4.823895,10.80344 7.629127,21.8496 15.516883,26.60354 12.213394,4.87826 28.022604,5.89953 46.712914,1.80351 0.43041,-0.16445 5.92367,-3.24011 5.92367,-3.24011 l 1.27175,-0.15762 2.9807,-3.39772 2.22209,-4.63383 4.24573,-10.14046 2.00453,-4.38423 -0.14808,-3.55757 -1.24361,-5.37264 -0.84284,-3.78065 1.3963,-2.24482 3.6043,-3.5372 1.8744304,-3.82824 0.67128,-0.8443 c 0.37203,-0.43791 0.0304,-1.25035 0.35912,-2.11883 0.29245,-0.77259 1.34732,-1.51714 1.72184,-2.00815 0.67635,-0.88674 0.95944,-1.08582 0.57921,-1.09596 -0.19057,-0.005 -1.93817,-0.89342 -1.4086,-1.12715 0.65087,-0.28727 -0.28998,-0.32138 0.0634,-1.05487 0.78863,-1.63675 0.50919,-2.17233 -0.23502,-2.17233 -0.43972,0 -1.73665,0.13074 -1.89199,-0.97892 -0.0362,-0.25843 -0.6282404,-0.67108 -0.6639204,-0.85992 -0.1792,-0.94848 0.4062704,-1.00879 0.8434304,-1.44595 0.41367,-0.41366 -9.2072904,-0.1655 -10.6824804,0.2441 -1.48022,0.41106 -1.77834,0.0228 -1.77834,-1.1002 v -0.92966 l -1.25558,0.70591 c -2.45868,1.45577 -4.09189,2.23731 -4.834,2.93225 -0.37823,0.3542 -0.73141,0.42917 -0.78038,0.67404 -0.0825,0.41269 -0.24208,1.03101 -0.28528,1.03101 -0.0432,0 -0.67293,-0.39963 -1.88488,-1.02253 -2.68354,-1.37926 -4.02423,-2.19926 -5.00501,-2.41434 -1.32641,-0.68436 -2.68178,-1.23601 -3.9703,-1.78542 l -1.88516,-0.22065 -5.10563,-1.03922 0.62373,-0.30747 c -5.17999,-2.47542 -10.9441,-3.08835 -16.890439,-1.80093 -0.09951,0.0407 -0.195186,0.0792 -0.287269,0.1154 -0.53752,0.21128 -0.95269,0.34296 -1.295064,0.35744 -1.112112,0.77756 -0.988554,-1.06677 -1.512052,-1.52652 -0.210607,-0.51721 -0.265091,-1.09579 -0.539811,-1.93986 -1.171677,-3.59997 -2.221565,-5.01155 -4.100216,-6.03278 l -1.30483,-0.70952 -0.325561,0.77567 c -0.444812,1.0579 -0.928279,0.97531 -2.192115,-0.37311 -0.591781,-0.63139 -1.61148,-1.53226 -2.265494,-2.00194 -0.609015,-0.43736 -0.91411,-0.63914 -1.094507,-0.65423 z" /><path
       style="fill:#000000;stroke-width:0.264583"
       id="path6"
       d="m -91.808338,233.40627 c 0.26624,2.46324 -0.14436,4.33695 -0.93105,6.46052 -0.41578,0.89547 -0.79433,1.80618 -1.1267,2.73564 -0.31939,0.80321 -0.52653,1.64783 -0.72141,2.48869 -0.12435,0.64924 -0.27804,1.29188 -0.48712,1.91905 -0.34407,1.02482 -0.56584,2.08368 -0.72502,3.15126 -0.12314,0.81812 -0.15097,1.6443 -0.1616,2.47004 -0.004,0.9338 -1.5e-4,1.86762 0.002,2.80142 0.003,0.89885 0.0568,1.80251 0.22423,2.68646 0.1963,0.78567 0.59138,1.48044 1.12029,2.08583 0.68526,0.74458 1.23159,1.60561 1.7946,2.44325 0.50967,0.70344 0.90525,1.48889 1.4851,2.13963 0.72188,0.67289 1.50463,1.2794 2.27928,1.89042 1.0294,0.79259 2.04723,1.60369 3.14413,2.30216 0.59817,0.36207 1.15919,0.77984 1.71917,1.19724 0.85829,0.59729 1.74214,1.15664 2.60013,1.75431 0.59103,0.4961 1.22866,0.89272 1.9019,1.26421 0.39891,0.12785 0.77058,0.31852 1.15758,0.4758 l -0.38765,-0.30549 v 0 c -0.38479,-0.16077 -0.76064,-0.33993 -1.15454,-0.47825 0.0735,0.0468 0.16123,0.0764 0.22047,0.14029 0.0501,0.054 -0.12952,-0.0702 -0.19179,-0.10938 -0.38464,-0.24232 -0.71921,-0.55409 -1.09458,-0.80947 -0.85673,-0.59826 -1.74022,-1.15686 -2.59901,-1.75219 -0.55984,-0.41845 -1.11934,-0.8394 -1.71854,-1.20099 -1.10323,-0.69535 -2.12577,-1.50636 -3.15737,-2.30204 -0.76959,-0.60799 -1.54212,-1.2154 -2.26639,-1.87647 -0.59296,-0.6425 -0.98567,-1.43403 -1.49839,-2.13765 -0.56101,-0.83722 -1.10273,-1.70044 -1.78454,-2.44594 -0.53302,-0.59539 -0.93116,-1.28359 -1.1325,-2.06282 -0.17282,-0.88073 -0.22432,-1.78253 -0.22981,-2.67901 -0.002,-0.93322 -0.006,-1.86646 2.6e-4,-2.79966 0.0107,-0.82422 0.0369,-1.64915 0.15456,-2.46638 0.15605,-1.06493 0.37642,-2.12122 0.72553,-3.14128 0.21093,-0.62815 0.37049,-1.27101 0.49006,-1.92287 0.19033,-0.84026 0.3968,-1.68352 0.71573,-2.48522 0.33318,-0.92859 0.70707,-1.84082 1.12179,-2.73626 0.26025,-0.64627 0.51039,-1.2984 0.72936,-1.96041 0.343,-1.06381 0.37752,-2.04222 0.3845,-2.67752 -0.0783,-1.08631 -0.1992,-1.92142 -0.55233,-3.07745 z" /><path
       style="fill:#000000;stroke-width:0.264583"
       id="path7"
       d="m -18.496774,258.01247 c -0.74036,2.45056 -1.32483,4.70186 -2.30293,6.85266 -0.40308,0.91634 -0.94007,1.75776 -1.50652,2.57932 -0.65399,0.97043 -1.40078,1.87203 -2.13538,2.78125 -0.36872,0.46908 -0.66954,1.01378 -1.21462,1.29517 -0.33587,0.14336 -0.70291,0.0944 -1.05075,0.17594 -0.51655,0.17269 -1.00215,0.41859 -1.49121,0.65503 -0.61227,0.40331 -1.26285,0.74084 -1.8949,1.11058 -0.60771,0.3874 -1.22889,0.75478 -1.87237,1.07958 -0.47084,0.24713 -0.96551,0.43468 -1.4917,0.51307 -0.42476,0.0474 -0.85285,0.0448 -1.27961,0.0439 l -1.02457,-0.006 c -0.32778,-0.0215 -0.64965,0.0226 -0.97375,0.0634 -0.32041,0.0402 -0.64264,0.0592 -0.96526,0.0677 -0.39414,-0.053 -0.77038,-0.20467 -1.14207,-0.34193 l 0.38905,0.30423 v 0 c 0.37409,0.13785 0.75515,0.29017 1.15437,0.32756 0.32336,-0.01 0.64615,-0.0313 0.96722,-0.0722 0.32301,-0.0405 0.64446,-0.0765 0.97081,-0.0577 0.34117,10e-4 0.68235,0.003 1.02352,0.005 0.42809,1e-5 0.85767,0.001 1.28332,-0.0506 0.52823,-0.0855 1.024,-0.27936 1.49735,-0.52799 0.64225,-0.32851 1.26525,-0.69365 1.87264,-1.08281 0.63209,-0.36847 1.28012,-0.70898 1.89594,-1.1053 0.48647,-0.23468 0.96909,-0.48159 1.48594,-0.64456 0.35264,-0.0701 0.72458,-0.0303 1.05909,-0.18667 0.54266,-0.29662 0.84814,-0.83942 1.21674,-1.31715 0.7325,-0.91227 1.47794,-1.81602 2.13456,-2.78585 0.56978,-0.82258 1.11016,-1.66544 1.51667,-2.58323 0.89772,-2.30781 1.80039,-4.75308 2.55741,-6.93878 1.60763,-3.66063 3.54054,-6.36679 3.91271,-8.73463 0.14406,-1.28 0.01,-2.91335 -0.26973,-4.50913 0.28746,5.35057 -3.07412,9.6955 -4.32197,13.09014 z" /><path
       style="fill:#483737;fill-opacity:1;stroke-width:0.264583"
       d="m -58.612814,238.22627 c 2.85062,-2.78652 3.70065,-3.07906 6.96358,-3.97137 5.12144,-1.73639 9.5483,-2.29864 12.71761,-1.3663 0.20197,0.0687 0.6844,0.27217 0.83313,0.42091 0.15691,0.15691 0.20449,0.66224 0.28001,0.83823 0.14598,0.34022 0.44838,0.64069 0.56357,0.98624 0.61205,1.97261 1.55599,4.30285 2.43481,6.03073 1.42203,2.7959 2.61616,4.89846 1.52889,7.96036 -1.28868,3.90388 -1.4348,5.55659 -3.5386,7.96094 -3.24388,3.77981 -6.28896,8.40184 -11.26429,9.29709 -1.0428,0.17453 -2.38183,0 -3.44427,0 -1.21534,0 -2.67158,0.23822 -3.80408,-0.14089 -0.089,-0.0298 -0.25803,0.0453 -0.34089,0 -1.10001,-0.60169 0.39728,0.0659 -0.97293,-0.55691 -9.795314,-5.63775 -11.288294,-18.53869 -1.95654,-27.45903 z"
       id="path8" /><path
       style="fill:#241c1c;stroke-width:0.264583"
       id="path9"
       d="m -50.956274,233.88123 c 0,0 -0.33908,0.67477 -0.79029,1.02954 -0.33391,0.27231 -0.60089,0.60952 -0.91436,0.90328 -0.29864,0.25845 -0.49797,0.55273 -0.58916,0.93482 -0.0704,0.37893 -0.0799,0.75226 0.015,1.12575 0.18075,0.48734 0.57215,0.85132 0.92562,1.21758 0.30999,0.33183 0.64457,0.63648 0.98771,0.93302 0.38081,0.45526 0.64609,1.00297 0.89492,1.53894 0.18751,0.50219 0.3868,0.99669 0.78412,1.36807 0.58723,0.46745 1.26479,0.8066 1.9428,1.1217 0.54541,0.22597 1.10376,0.40632 1.64429,0.64436 0.3444,0.16307 0.71089,0.23735 1.08738,0.27048 0.32763,0.0207 0.65619,0.0162 0.98429,0.015 0.3999,-0.046 0.79444,-0.11825 1.18649,-0.20774 0.49011,-0.14381 0.90987,-0.44944 1.3546,-0.69229 0.59115,-0.31163 1.20725,-0.5349 1.84374,-0.73091 0.64577,-0.18694 1.3118,-0.2605 1.95685,-0.45265 0.4894,-0.18359 0.90115,-0.45703 1.12597,-0.93584 0.12393,-0.22348 0.0627,-0.4921 0.12008,-0.72633 0.0424,-0.17314 0.14742,-0.32124 0.23631,-0.47112 0.25051,-0.38307 0.50789,-0.7626 0.63944,-1.20437 0.11976,-0.37244 0.002,-0.70349 -0.11396,-1.05659 -0.18118,-0.40238 -0.38793,-0.79357 -0.57912,-1.19202 -0.14302,-0.2483 -0.0653,-0.13296 -0.23058,-0.34774 l -0.45393,-0.19406 c -1.04236,-7.18705 -11.7471,-3.74777 -13.40247,-3.16083 z" /><path
       style="fill:url(#linearGradient49);fill-opacity:1;stroke-width:0.310806"
       d="m -56.363014,254.99678 c -0.86567,-0.13601 -2.83941,-0.40453 -4.38608,-0.59669 -4.750784,-0.59026 -5.513904,-1.17019 -4.922854,-3.74125 0.43506,-1.89249 2.79543,-5.7684 3.72201,-6.11183 2.262284,-0.83849 8.764394,1.27736 14.243664,4.63504 1.47164,0.90181 4.21948,2.35735 6.1063,3.23451 l 3.43058,1.59485 -1.78974,0.65279 c -1.62868,0.59405 -2.37649,0.6495 -8.30983,0.61633 -3.58605,-0.0201 -7.22837,-0.14773 -8.09405,-0.28375 z"
       id="path10" /><path
       style="fill:#000000;stroke-width:0.264583"
       id="path11"
       d="m -61.433318,241.7024 c 0.498064,-0.67588 1.068054,-1.2931 1.606944,-1.93549 0.4229,-0.43838 0.78677,-0.93363 1.23132,-1.35155 0.22823,-0.21455 0.52024,-0.43843 0.76539,-0.63321 0.68776,-0.53565 1.43004,-0.99054 2.16277,-1.46006 0.72793,-0.42344 1.4804,-0.79727 2.25164,-1.13411 0.85823,-0.37075 1.7343,-0.69631 2.60378,-1.03902 0.82402,-0.27195 1.61938,-0.62181 2.45166,-0.86768 0.74688,-0.18769 1.50589,-0.31575 2.25986,-0.46993 0.46889,-0.10301 0.94462,-0.16151 1.42348,-0.18688 0.5132,-0.0159 1.02681,-0.0122 1.5402,-0.0115 0.57008,-0.004 1.13666,-0.0134 1.7027,0.0591 0.49386,0.051 0.98442,0.10331 1.4637,0.23695 -0.15037,-0.20421 0.86831,0.48589 0.62727,0.27705 -0.0646,-0.056 -0.14521,-0.15444 -0.22481,-0.1233 -0.0736,0.0288 0.1311,0.0883 0.19475,0.13506 0.0644,0.0473 0.12608,0.0981 0.18912,0.14719 0.49025,0.34916 0.88411,0.81123 1.21851,1.30747 0.27059,0.40765 0.54499,0.80768 0.78112,1.23644 0.23679,0.4895 0.41036,1.00622 0.61612,1.50955 0.15794,0.54427 0.34471,1.07937 0.51283,1.62057 0.13896,0.49545 0.35783,0.95039 0.62255,1.38916 0.32793,0.51031 0.43752,1.1154 0.6508,1.67653 0.20242,0.50399 0.51243,0.94499 0.86346,1.35449 0.11356,0.17048 0.60926,0.70306 0.60416,0.88811 -7.9e-4,0.0332 -0.0485,0.0455 -0.0727,0.0683 -0.0706,0.005 -0.14116,0.0109 -0.21175,0.0164 0,0 0.40249,0.28427 0.40249,0.28427 v 0 c 0.0778,-0.0145 0.15552,-0.029 0.23328,-0.0435 0.0328,-0.0397 0.0921,-0.0681 0.0983,-0.11922 0.019,-0.15733 -0.49396,-0.75234 -0.6003,-0.90266 -0.35277,-0.40483 -0.66732,-0.83984 -0.87297,-1.34011 -0.21751,-0.56176 -0.32174,-1.16961 -0.64564,-1.68388 -0.26627,-0.43475 -0.48804,-0.88525 -0.62737,-1.37798 -0.16574,-0.54319 -0.3612,-1.07689 -0.51166,-1.62487 -0.2061,-0.5042 -0.38246,-1.02016 -0.61189,-1.51386 -0.23688,-0.43004 -0.50633,-0.83399 -0.78096,-1.24094 -0.33027,-0.50001 -0.72198,-0.96959 -1.21139,-1.32133 -0.49161,-0.39098 -1.03734,-0.71594 -1.63379,-0.91874 -0.48164,-0.12662 -0.9731,-0.17885 -1.46745,-0.2311 -0.5669,-0.0682 -1.13499,-0.0552 -1.70531,-0.0535 -0.51482,-7.9e-4 -1.02992,-0.006 -1.54452,0.0119 -0.47911,0.0286 -0.95467,0.0912 -1.4236,0.1956 -0.75416,0.15549 -1.514,0.28286 -2.26035,0.47476 -0.83169,0.24985 -1.62895,0.59701 -2.45254,0.87213 -0.87043,0.34329 -1.74709,0.6706 -2.60763,1.03865 -0.77188,0.33969 -1.52481,0.71793 -2.25469,1.14118 -0.73462,0.46878 -1.47431,0.92984 -2.16313,1.46578 -0.24612,0.1964 -0.53958,0.42259 -0.76897,0.6383 -0.44533,0.41879 -0.81112,0.91407 -1.23419,1.35392 -0.53888,0.64289 -1.105864,1.26263 -1.614074,1.93094 0,0 0.42348,0.25471 0.42348,0.25471 z" /><path
       style="fill:#000000;fill-opacity:1;stroke-width:0.282534"
       d="m -56.706544,254.33282 c -0.78408,-0.12409 -2.57179,-0.36906 -3.9727,-0.54437 -4.303024,-0.53851 -4.994214,-1.06761 -4.458854,-3.41327 0.39404,-1.72656 2.53195,-5.26268 3.3712,-5.576 2.049064,-0.76498 7.938354,1.16537 12.901194,4.22868 1.33294,0.82275 3.82179,2.15069 5.53078,2.95095 l 2.76267,1.29368 c 2.28307,0.50116 4.3621,0.0747 6.27354,-0.12082 -1.90406,0.354 -3.9877,0.83777 -6.27036,0.4076 l -1.27966,0.47013 c -1.47518,0.54197 -2.15251,0.59257 -7.52663,0.5623 -3.24807,-0.0183 -6.54709,-0.13479 -7.33118,-0.25888 z"
       id="path12" /><path
       style="fill:#000000;stroke-width:0.264583"
       id="path13"
       d="m -50.956274,233.88123 c 0,0 -0.33908,0.67477 -0.79029,1.02954 -0.33391,0.27231 -0.60089,0.60952 -0.91436,0.90328 -0.29864,0.25845 -0.49797,0.55273 -0.58916,0.93482 -0.0704,0.37893 -0.0799,0.75226 0.015,1.12575 0.18075,0.48734 0.57215,0.85132 0.92562,1.21758 0.30999,0.33183 0.64457,0.63648 0.98771,0.93302 0.38081,0.45526 0.64609,1.00297 0.89492,1.53894 0.18751,0.50219 0.3868,0.99669 0.78412,1.36807 0.58723,0.46745 1.26479,0.8066 1.9428,1.1217 0.54541,0.22597 1.10376,0.40632 1.64429,0.64436 0.3444,0.16307 0.71089,0.23735 1.08738,0.27048 0.32763,0.0207 0.65619,0.0162 0.98429,0.015 0.3999,-0.046 0.79444,-0.11825 1.18649,-0.20774 0.49011,-0.14381 0.90987,-0.44944 1.3546,-0.69229 0.59115,-0.31163 1.20725,-0.5349 1.84374,-0.73091 0.64577,-0.18694 1.3118,-0.2605 1.95685,-0.45265 0.4894,-0.18359 0.90115,-0.45703 1.12597,-0.93584 0.12393,-0.22348 0.0627,-0.4921 0.12008,-0.72633 0.0424,-0.17314 0.14742,-0.32124 0.23631,-0.47112 0.25051,-0.38307 0.50789,-0.7626 0.63944,-1.20437 0.11976,-0.37244 0.002,-0.70349 -0.11396,-1.05659 -0.18118,-0.40238 -0.38793,-0.79357 -0.57912,-1.19202 -0.14302,-0.2483 -0.0653,-0.13296 -0.23058,-0.34774 l -0.45393,-0.19406 v 0 c 0.1703,0.20669 0.0905,0.0947 0.23634,0.33823 0.19151,0.39626 0.38972,0.78934 0.58021,1.18535 0.11281,0.34485 0.24358,0.66399 0.12709,1.02988 -0.1268,0.43894 -0.38202,0.81579 -0.63001,1.19544 -0.0899,0.1501 -0.20577,0.31627 -0.25081,0.49034 -0.0587,0.22678 0.0107,0.4924 -0.11086,0.70983 -0.21606,0.46733 -0.62401,0.72773 -1.0999,0.90307 -0.64551,0.18974 -1.31316,0.25958 -1.95729,0.45299 -0.63916,0.19686 -1.25625,0.42728 -1.85052,0.73823 -0.44149,0.2411 -0.85936,0.54461 -1.34883,0.67979 -0.38985,0.0881 -0.78333,0.15969 -1.18155,0.19793 -0.32718,0.001 -0.65494,0.005 -0.9815,-0.0189 -0.37311,-0.0371 -0.73479,-0.11935 -1.07567,-0.28144 -0.53979,-0.23693 -1.10078,-0.40981 -1.64172,-0.64376 -0.62683,-0.29436 -0.50805,-0.19406 -1.1026,-0.63033 -0.41076,-0.35672 -0.61227,-0.84957 -0.79677,-1.35187 -0.24775,-0.54042 -0.51573,-1.08569 -0.88207,-1.55615 -0.34312,-0.29708 -0.68245,-0.597 -0.99198,-0.93006 -0.35091,-0.36136 -0.73906,-0.7193 -0.93365,-1.19366 -0.10063,-0.36532 -0.0913,-0.7309 -0.0248,-1.10369 0.0861,-0.37359 0.28198,-0.65864 0.5736,-0.91039 0.31188,-0.29324 0.57849,-0.62889 0.91141,-0.89997 0.44716,-0.35002 0.67712,-1.13986 1.21608,-1.32379 l -0.18663,-0.2379 z" /><path
       style="fill:#000000;stroke-width:0.264583"
       id="path14"
       d="m -39.915634,240.40853 c 0.45774,-0.13877 0.89261,-0.31507 1.20717,-0.69453 0.37367,-0.52262 0.50977,-1.10737 0.31901,-1.73687 -0.18829,-0.54516 -0.39637,-1.03619 -0.90218,-1.36015 -0.51291,-0.34615 -1.13108,-0.62107 -1.76037,-0.51118 -0.35961,0.1181 -0.70783,0.26812 -0.9683,0.55413 -0.34351,0.42889 -0.37323,0.79664 -0.21606,1.32311 0.1846,0.59197 0.47086,1.1478 0.79325,1.67629 0.32528,0.58322 0.90498,0.88837 1.52748,0.7492 z" /><g
       id="g25"
       transform="matrix(1.1769256,0,0,1.1769256,-167.44669,-39.488711)"
       style="fill:#483737;fill-opacity:1"><path
         style="fill:#483737;fill-opacity:1;stroke:none;stroke-width:0.201091;stroke-opacity:1"
         id="path15"
         d="m 94.319981,219.67081 c -0.06866,0.60988 -0.309084,1.14727 -0.564842,1.68514 -0.29882,0.62213 -0.622025,1.21849 -1.030504,1.7509 -0.430346,0.55526 -0.864883,1.10626 -1.28969,1.66759 -0.649183,0.83972 -1.262657,1.70739 -1.846774,2.61048 -0.60395,0.91564 -1.151803,1.88112 -1.644043,2.88186 -0.356959,0.80553 -0.829178,1.53214 -1.250631,2.29259 -0.354181,0.71094 -0.778996,1.36836 -1.165748,2.05535 -0.374623,0.56753 -0.617559,1.20658 -0.853939,1.85631 -0.267334,0.62682 -0.550213,1.24457 -0.819061,1.87057 -0.291678,0.6871 -0.542272,1.39572 -0.783228,2.10649 -0.164272,0.62566 -0.471774,1.18154 -0.707661,1.77321 -0.409857,1.02146 -0.254224,1.25628 -0.478164,3.36768 v 0 c 0.01142,-0.0594 0.02283,-0.11877 0.03426,-0.17815 0.07863,-0.40468 0.157777,-0.81014 0.268264,-1.20711 0.15827,-0.54559 0.354243,-1.07524 0.581898,-1.59014 0.235359,-0.59388 0.543054,-1.15205 0.706729,-1.77951 0.238318,-0.70967 0.491205,-1.41525 0.779207,-2.10188 0.273388,-0.62495 0.554595,-1.24516 0.822418,-1.87322 0.237139,-0.6443 0.473722,-1.28323 0.847842,-1.84593 0.386505,-0.68757 0.80369,-1.35129 1.16291,-2.05888 0.4212,-0.76229 0.893493,-1.49069 1.251075,-2.29736 0.483756,-1.00331 1.031371,-1.96661 1.632508,-2.88139 1.678681,-2.48192 3.937141,-4.90304 4.347183,-8.1046 z" /><path
         style="fill:#483737;fill-opacity:1;stroke:none;stroke-width:0.264583;stroke-opacity:1"
         id="path16"
         d="m 91.973314,222.32362 c 0.349018,0.15844 0.646414,0.40156 0.96701,0.60785 0.251685,0.18211 0.511709,0.3497 0.800908,0.46472 0.220674,0.0552 0.42213,0.16077 0.635773,0.23621 0.159388,0.0734 0.08722,0.0299 0.21842,0.12718 0,0 -0.255819,-0.29769 -0.255819,-0.29769 v 0 c -0.137947,-0.0896 -0.06321,-0.0487 -0.225701,-0.12014 -0.211909,-0.0794 -0.416357,-0.17737 -0.635126,-0.23769 -0.284554,-0.11838 -0.540474,-0.28739 -0.791452,-0.46508 -0.321587,-0.20921 -0.624309,-0.44804 -0.973073,-0.61225 0,0 0.25906,0.29689 0.25906,0.29689 z" /><path
         style="fill:#483737;fill-opacity:1;stroke:none;stroke-width:0.264583;stroke-opacity:1"
         id="path17"
         d="m 90.921236,223.98671 c 0.349018,0.15845 0.646414,0.40157 0.96701,0.60786 0.251686,0.1821 0.511709,0.3497 0.800909,0.46472 0.220673,0.0552 0.422129,0.16076 0.635773,0.23621 0.159387,0.0734 0.08722,0.0299 0.218419,0.12718 0,0 -0.255818,-0.2977 -0.255818,-0.2977 v 0 c -0.137948,-0.0896 -0.06321,-0.0487 -0.225701,-0.12013 -0.21191,-0.0794 -0.416358,-0.17737 -0.635127,-0.2377 -0.284554,-0.11837 -0.540474,-0.28738 -0.791451,-0.46507 -0.321588,-0.20921 -0.62431,-0.44804 -0.973074,-0.61225 0,0 0.25906,0.29688 0.25906,0.29688 z" /><path
         style="fill:#483737;fill-opacity:1;stroke:none;stroke-width:0.264583;stroke-opacity:1"
         id="path18"
         d="m 89.830505,226.33753 c 0.349017,0.15844 0.646413,0.40157 0.96701,0.60785 0.251685,0.18211 0.511709,0.3497 0.800908,0.46472 0.220674,0.0552 0.422129,0.16077 0.635773,0.23621 0.159388,0.0734 0.08722,0.0299 0.21842,0.12718 0,0 -0.255819,-0.29769 -0.255819,-0.29769 v 0 c -0.137947,-0.0896 -0.06321,-0.0487 -0.225701,-0.12013 -0.211909,-0.0794 -0.416358,-0.17738 -0.635126,-0.2377 -0.284554,-0.11838 -0.540475,-0.28739 -0.791452,-0.46508 -0.321588,-0.20921 -0.624309,-0.44803 -0.973074,-0.61224 0,0 0.259061,0.29688 0.259061,0.29688 z" /><path
         style="fill:#483737;fill-opacity:1;stroke:none;stroke-width:0.264583;stroke-opacity:1"
         id="path19"
         d="m 86.162013,231.62089 c 0.349018,0.15845 0.646414,0.40157 0.96701,0.60786 0.251685,0.18211 0.511709,0.3497 0.800908,0.46472 0.220674,0.0552 0.42213,0.16076 0.635773,0.23621 0.159388,0.0734 0.08722,0.0299 0.21842,0.12718 0,0 -0.255819,-0.29769 -0.255819,-0.29769 v 0 c -0.137947,-0.0896 -0.06321,-0.0487 -0.225701,-0.12014 -0.211909,-0.0794 -0.416357,-0.17737 -0.635126,-0.23769 -0.284554,-0.11838 -0.540474,-0.28739 -0.791452,-0.46508 -0.321587,-0.20921 -0.624309,-0.44804 -0.973073,-0.61225 0,0 0.25906,0.29688 0.25906,0.29688 z" /><path
         style="fill:#483737;fill-opacity:1;stroke:none;stroke-width:0.264583;stroke-opacity:1"
         id="path20"
         d="m 85.581277,233.38516 c 0.179907,0.0793 0.365839,0.14428 0.539887,0.23593 0.169681,0.0875 0.333319,0.18474 0.492995,0.28923 0.164864,0.11276 0.335944,0.21503 0.509537,0.31359 0.106858,0.0661 0.206724,0.14345 0.303451,0.22354 0.043,0.0371 0.08933,0.0699 0.134015,0.10485 0,0 -0.252615,-0.29718 -0.252615,-0.29718 v 0 c -0.04503,-0.0347 -0.09038,-0.069 -0.133762,-0.10572 -0.09757,-0.0771 -0.196108,-0.15399 -0.30468,-0.21526 -0.172909,-0.0982 -0.342938,-0.20076 -0.506678,-0.31381 -0.159478,-0.10316 -0.323898,-0.19743 -0.493254,-0.28354 -0.180575,-0.09 -0.370717,-0.15827 -0.552724,-0.24549 0,0 0.263826,0.29387 0.263826,0.29387 z" /><path
         style="fill:#483737;fill-opacity:1;stroke:none;stroke-width:0.264583;stroke-opacity:1"
         id="path21"
         d="m 84.554592,235.03734 c 0.217598,0.12722 0.432092,0.25973 0.652308,0.38236 0.236177,0.11778 0.471448,0.23668 0.699545,0.36975 0.164131,0.089 0.319768,0.19165 0.477799,0.29073 0.126497,0.0795 0.263096,0.14091 0.400921,0.19773 0.05224,0.0222 0.106213,0.0392 0.16065,0.0549 0,0 -0.263589,-0.28804 -0.263589,-0.28804 v 0 c -0.05268,-0.0163 -0.105039,-0.034 -0.155935,-0.0555 -0.135571,-0.0572 -0.269194,-0.11999 -0.393613,-0.19904 -0.157262,-0.0984 -0.312917,-0.19949 -0.476654,-0.28714 -0.227226,-0.12797 -0.459811,-0.24484 -0.692857,-0.36161 -0.225593,-0.12806 -0.449237,-0.26131 -0.664912,-0.40532 0,0 0.256335,0.30121 0.256335,0.30121 z" /><path
         style="fill:#483737;fill-opacity:1;stroke:none;stroke-width:0.264583;stroke-opacity:1"
         id="path22"
         d="m 84.07373,236.93925 c 0.242623,0.18785 0.508744,0.34428 0.771097,0.50286 0.211299,0.12998 0.44545,0.21432 0.650755,0.35368 -0.04644,-0.047 0.213881,0.16455 0.164559,0.11839 -0.06724,-0.063 -0.139444,-0.12046 -0.209915,-0.17982 -0.02705,-0.0228 0.05286,0.047 0.07964,0.0701 0.387496,0.33422 0.241495,0.22426 0.460923,0.38395 0.09113,0.0664 0.1915,0.11709 0.292878,0.16539 0,0 -0.258318,-0.29092 -0.258318,-0.29092 v 0 c -0.09817,-0.0467 -0.193818,-0.0984 -0.281324,-0.16346 -0.154689,-0.117 -0.125688,-0.0986 0.108996,0.10694 0.02641,0.0231 -0.05221,-0.047 -0.07875,-0.0699 -0.174207,-0.15099 -0.335813,-0.30602 -0.528555,-0.42988 -0.205636,-0.13052 -0.435461,-0.21417 -0.642796,-0.34237 -0.268367,-0.16231 -0.540845,-0.32302 -0.782135,-0.52453 0,0 0.252938,0.29961 0.252938,0.29961 z" /><path
         style="fill:#483737;fill-opacity:1;stroke:none;stroke-width:0.264583;stroke-opacity:1"
         id="path23"
         d="m 84.228148,239.7954 c -0.183623,-0.035 -0.359748,-0.10175 -0.538135,-0.15662 -0.191295,-0.0612 -0.386966,-0.11536 -0.567502,-0.20466 -0.150665,-0.0599 -0.532916,-0.4049 -0.02658,0.0284 -0.180361,-0.20085 -0.385864,-0.37449 -0.59387,-0.54651 0.514753,0.47997 0.03623,-0.0419 -0.184953,-0.1407 -0.02277,-0.0105 -0.0476,-0.0153 -0.07139,-0.023 0,0 0.259355,0.2871 0.259355,0.2871 v 0 c 0.02184,0.009 0.04464,0.0168 0.06548,0.0282 0.02127,0.0112 0.07768,0.0571 0.06011,0.0406 -0.02751,-0.026 -0.787568,-0.68496 0.120419,0.10314 0.04101,0.0346 0.482884,0.4077 -0.178652,-0.1585 -0.0174,-0.0149 0.03349,0.0312 0.04972,0.0474 0.05546,0.0551 0.04092,0.0438 0.09537,0.10298 0.01643,0.018 0.03342,0.0353 0.05012,0.053 0.197523,0.17394 0.370859,0.35693 0.610458,0.46581 0.182615,0.082 0.376142,0.1367 0.566922,0.1962 0.1835,0.0581 0.364955,0.12476 0.553128,0.16654 0,0 -0.270058,-0.28904 -0.270058,-0.28904 z" /><path
         style="fill:#483737;fill-opacity:1;stroke:none;stroke-width:0.264583;stroke-opacity:1"
         id="path24"
         d="m 82.084043,242.04316 c 0.163651,0.0877 0.340689,0.14798 0.518003,0.20141 0.205845,0.0562 0.415473,0.0977 0.626655,0.12729 0.292701,0.0281 0.585356,0.0565 0.877005,0.0941 0.115671,0.0203 0.23573,0.0263 0.348416,0.0613 -0.287277,-0.23643 -0.353625,-0.33859 -0.283138,-0.23104 0,0 0.305701,0.25107 0.305701,0.25107 v 0 c 0.09461,-0.15827 0.03577,-0.0299 -0.289541,-0.30913 -0.113533,-0.023 -0.228949,-0.0351 -0.343918,-0.0484 -0.290365,-0.0302 -0.581587,-0.0526 -0.871146,-0.09 -0.21171,-0.0359 -0.422601,-0.0787 -0.629217,-0.13766 -0.177875,-0.055 -0.356766,-0.11523 -0.515561,-0.2145 0,0 0.256608,0.29627 0.256608,0.29627 z" /><path
         style="fill:#483737;fill-opacity:1;stroke:none;stroke-width:0.264583;stroke-opacity:1"
         id="path25"
         d="m 81.579229,243.93329 c 0.172092,0.0783 0.358805,0.11939 0.541794,0.16394 0.178786,0.0344 0.351118,0.0921 0.525284,0.14374 0.147226,0.0654 0.275336,0.16756 0.400127,0.26808 0.112083,0.0856 0.226159,0.17444 0.356613,0.23022 0,0 -0.259305,-0.29137 -0.259305,-0.29137 v 0 c -0.12416,-0.0622 -0.236642,-0.14548 -0.345366,-0.23131 -0.128187,-0.10036 -0.258373,-0.20489 -0.41329,-0.26059 -0.172493,-0.0505 -0.344268,-0.10294 -0.521095,-0.13672 -0.18497,-0.0462 -0.376489,-0.0889 -0.543419,-0.18422 0,0 0.258669,0.29817 0.258669,0.29817 z" /></g><rect
       style="fill:#6c5353;fill-opacity:1;stroke:none;stroke-width:0.564996;stroke-opacity:1"
       id="rect25"
       width="14.78473"
       height="8.747056"
       x="62.662235"
       y="225.2711"
       transform="matrix(0.83668221,0.54768867,-0.53996041,0.84169042,0,0)" /><path
       style="fill:#000000;stroke-width:0.264583"
       id="path26"
       d="m -59.692764,230.59212 v 0 c -0.13857,-0.17248 -0.0667,-0.086 -0.21584,-0.25926 -0.22025,-0.26294 -0.42458,-0.54248 -0.73123,-0.71278 -0.51702,-0.33148 -1.035334,-0.66831 -1.629954,-0.84093 -0.34786,-0.14482 -0.68681,-0.32584 -1.07694,-0.29312 -0.38574,-0.001 -0.77157,-0.004 -1.15724,0.004 -0.44954,0.0154 -0.89849,0.0512 -1.33964,0.1438 -0.42615,0.0945 -0.95954,0.17191 -1.23147,0.54698 -0.013,0.0493 -0.04,0.097 -0.0389,0.14797 0.006,0.28934 0.42528,0.4255 0.5747,0.62384 0.29607,0.26777 0.60021,0.52667 0.87969,0.81216 0.36868,0.34474 0.78457,0.63137 1.25248,0.82802 0.41723,0.14587 0.84875,0.24334 1.27826,0.34565 0.42912,0.0654 0.85549,0.0233 1.2839,-0.0394 0.669584,-0.10058 1.337424,-0.23159 1.944324,-0.54698 0.29247,-0.26434 0.28778,-0.64825 0.20782,-0.75995 z" /><path
       style="fill:#000000;stroke-width:0.282534"
       id="path27"
       d="m -56.624964,246.0014 c 0.008,3.24123 -0.82903,6.65853 -1.14889,9.64686 -0.15234,1.07166 -0.21632,2.4233 -0.50342,3.50176 -0.10892,0.68479 -0.27592,1.37628 -0.22572,2.07326 0.0775,0.35481 0.35311,0.42754 0.77156,0.4707 0.17551,0.0181 0.60005,-0.54136 0.68432,-0.64613 1.23867,-1.58878 4.54274,-8.88811 6.10679,-13.30699 l -0.64817,-0.3275 -0.19311,0.33508 c -0.61158,1.87358 -3.35426,9.48062 -5.71748,13.0343 -0.14966,0.18322 -0.2721,0.3596 -0.46425,0.50257 -0.0623,0.0464 -0.22321,0.0351 -0.20598,0.10995 0.0304,0.13217 0.2061,0.18134 0.29661,0.28365 0.0285,0.0322 -0.0839,-0.0358 -0.10845,-0.071 -0.0302,-0.0435 -0.0306,-0.10084 -0.0459,-0.15129 -0.0648,-0.69288 0.10604,-1.3835 0.20973,-2.06512 0.24943,-1.08416 0.38054,-2.44769 0.50429,-3.4997 0.55508,-3.71943 1.3364,-6.62139 1.33682,-10.25957 l -0.65388,-0.1242 z" /><path
       style="fill:#000000;stroke-width:0.264583"
       id="path28"
       d="m -55.539534,266.29859 c 6.4709,2.79825 11.94082,-0.69837 15.61342,-5.35188 l 1.36204,-1.8274 -0.87348,0.59661 c -1.85129,2.37631 -4.54786,4.90721 -7.42059,6.05272 -0.6181,0.34491 -2.34678,0.36599 -3.04799,0.51194 -0.56133,0.1094 -1.12415,0.13544 -1.69572,0.10834 -0.65081,-0.0118 -1.30512,-0.0299 -1.94598,-0.15505 -0.66584,-0.15021 -1.30701,-0.37388 -1.93821,-0.63324 -0.6041,-0.20819 -1.02646,-0.40809 -1.32634,-0.59393 -0.44622,-0.28517 -0.29061,-0.19142 -0.95103,-0.56624 -0.007,-0.004 -0.42863,-0.22993 -0.43542,-0.23025 -0.0757,-0.004 0.26387,0.14943 0.19694,0.1138 -0.0748,-0.0398 -0.14703,-0.0842 -0.22054,-0.12637 -0.4345,-0.30118 -0.92159,-0.54764 -1.21503,-1.00595 -1.68086,-1.53056 -2.944454,-3.23031 -4.102264,-5.20141 1.29742,3.88493 5.604674,7.47867 8.000194,8.30831 z" /><path
       style="fill:#000000;fill-opacity:1;stroke-width:0.264583"
       id="path29"
       d="m -48.289754,239.68443 v 0 c 0.0154,0.003 0.0309,0.006 0.0464,0.009 0.11921,0.0196 0.23817,0.0265 0.35856,0.0101 0.25582,-0.0275 0.51282,-0.0507 0.76268,-0.11591 0.14213,-0.0403 0.28613,-0.0769 0.42034,-0.14013 0.0866,-0.0409 0.11646,-0.064 0.19487,-0.11785 0.0377,-0.0259 0.0752,-0.0523 0.11275,-0.0785 0.3219,-0.22946 0.6385,-0.46651 0.95761,-0.69977 0.27697,-0.21727 0.5613,-0.42902 0.81392,-0.67453 0.17095,-0.20534 0.31939,-0.42875 0.41292,-0.68079 0.0354,-0.11193 0.0552,-0.16672 0.0816,-0.28212 0.0471,-0.20626 0.0622,-0.41692 0.0641,-0.62802 -0.004,-0.32605 -0.005,-0.65784 -0.18525,-0.9437 -0.0271,-0.0418 -0.052,-0.085 -0.0813,-0.12529 -0.12883,-0.1768 -0.29566,-0.31885 -0.49726,-0.40533 -0.12237,-0.0387 -0.50117,-0.19958 -0.72091,-0.19418 -0.0958,0.002 -0.18827,0.0306 -0.28042,0.0537 -0.43033,0.10837 -0.86149,0.21355 -1.29406,0.31269 -0.0691,0.0155 -0.44463,0.0994 -0.53057,0.1204 -0.18354,0.0437 -0.36764,0.0928 -0.53123,0.19008 -0.29958,0.18062 -0.56586,0.40598 -0.81672,0.64935 -0.28812,0.27287 -0.58771,0.55162 -0.77798,0.90443 -0.0202,0.0493 -0.0432,0.0975 -0.0606,0.14783 -0.1008,0.29096 -0.13652,0.60175 -0.14441,0.90784 0.0157,0.35156 0.0537,0.6412 0.26506,0.93458 0.0315,0.0372 0.0609,0.0763 0.0944,0.11172 0.59728,0.4835 0.4933,0.35547 1.33553,0.73484 z" /><path
       style="fill:#000000;fill-opacity:1;stroke-width:0.0245712"
       d="m -33.940664,234.35417 c -0.10138,-0.0174 -0.22917,-0.0446 -0.28398,-0.0604 -0.10822,-0.0311 -0.39538,-0.18328 -0.64261,-0.34045 -0.34909,-0.22194 -1.36639,-0.75788 -1.72888,-0.91082 -0.21299,-0.0899 -0.56664,-0.24316 -0.7859,-0.34064 l -0.39865,-0.17725 0.24376,-0.22107 c 1.2957,-0.88265 2.73488,-1.23152 4.12306,-1.58828 0.77926,-0.19409 0.95799,-0.21859 1.60666,-0.22027 0.28951,-0.0153 0.52029,-0.0357 0.76158,0.10025 0.23584,0.13291 0.3174,0.20453 0.34854,0.30609 0.0387,0.12624 0.0308,0.71269 -0.0139,1.02327 -0.16223,1.12886 -0.68092,1.88734 -1.53917,2.25076 -0.35975,0.15233 -0.56504,0.19106 -1.06734,0.20141 -0.30063,0.006 -0.49694,-0.001 -0.6232,-0.0227 z"
       id="path30" /><path
       style="fill:#f9f9f9;fill-opacity:1;stroke-width:0.0706335"
       d="m -64.010268,247.80617 c 0.53422,-0.97074 1.37421,-2.2836 1.78301,-2.67084 0.4258,-0.40337 0.70917,-0.4949 1.701134,-0.4954 0.84527,-5.6e-4 1.7809,0.0895 3.04688,0.5189 l 1.13297,0.3843 c -0.29074,1.78583 -0.10832,3.83129 -2.03352,3.97566 -0.28576,0.001 -1.23865,0.0976 -1.34678,-0.54133 -0.4594,-1.08029 -1.15691,-0.71138 -1.494644,-0.26671 -0.5909,0.78215 -0.76574,0.88077 -1.34862,0.76073 -0.37305,-0.0768 -0.6922,-0.23681 -1.2224,-0.6127 -0.29544,-0.30366 -0.38292,-0.70255 -0.21803,-1.05261 z"
       id="path31" /><path
       style="fill:#f9f9f9;fill-opacity:1;stroke-width:0.0706335"
       d="m -59.950374,253.86086 c -2.569224,-0.35225 -3.932424,-0.6246 -4.155184,-0.83014 -0.0999,-0.0922 0.18557,-0.50216 0.32552,-0.46757 0.0838,0.0207 0.20174,-0.0608 0.34999,-0.24196 0.12298,-0.15027 0.36807,-0.38373 0.54464,-0.51882 0.27391,-0.20955 0.37596,-0.24561 0.69499,-0.24561 0.3288,0 0.41762,0.0339 0.7356,0.2807 0.455184,0.35331 0.546984,0.49255 0.672204,1.01961 0.0555,0.23357 0.13788,0.49255 0.18308,0.57549 0.20901,0.38349 0.62445,0.34849 1.34735,-0.11351 0.30207,-0.19304 0.68595,-0.39018 0.85308,-0.43806 0.28345,-0.0813 0.31577,-0.0761 0.48114,0.0765 0.15756,0.14535 0.17728,0.22056 0.17728,0.67628 0,0.44488 -0.0165,0.51162 -0.12475,0.5043 -0.0686,-0.004 -1.00682,-0.12938 -2.08494,-0.27719 z"
       id="path32" /><path
       style="fill:#f9f9f9;fill-opacity:1;stroke-width:0.0706335"
       d="m -51.233344,252.04992 c -0.16497,-0.0735 -0.45637,-0.29474 -0.64755,-0.49157 l -0.34761,-0.35787 0.60068,-1.55418 c 0.33038,-0.8548 0.63931,-1.5939 0.68652,-1.64245 0.0684,-0.0704 0.28754,0.027 1.08044,0.47999 1.02243,0.58419 1.26193,0.74586 0.98226,0.66305 -0.14316,-0.0424 -0.15856,-0.0152 -0.20374,0.35959 -0.0268,0.22299 -0.10744,0.53853 -0.17892,0.70118 -0.18626,0.42358 -1.11052,1.73556 -1.31565,1.86755 -0.21952,0.14123 -0.28887,0.13856 -0.65643,-0.0253 z"
       id="path33" /><path
       style="fill:#f9f9f9;fill-opacity:1;stroke-width:0.0706335"
       d="m -47.466854,251.60868 c -0.44683,-0.78623 -0.72227,-1.35721 -0.72227,-1.49725 0,-0.0849 -0.0802,-0.21628 -0.1782,-0.29198 -0.12151,-0.0939 -0.17821,-0.20656 -0.17821,-0.35429 v -0.21665 l 0.44551,0.26589 c 0.24503,0.14625 0.83843,0.47905 1.31868,0.73956 0.48026,0.26051 0.87319,0.51491 0.87319,0.56534 0,0.21164 -0.47347,0.76963 -0.78409,0.92403 -0.46449,0.2309 -0.57808,0.21115 -0.77461,-0.13465 z"
       id="path34" /><path
       style="fill:#f9f9f9;fill-opacity:1;stroke-width:0.0706335"
       d="m -49.529344,254.55885 c 1.08093,-1.63651 2.48047,-0.88629 2.97437,-0.15227 l 0.0931,0.1833 -1.18019,-0.0234 c -0.81804,-0.0162 -1.88738,0.10507 -1.88725,-0.007 z"
       id="path35" /><path
       style="fill:#f9f9f9;fill-opacity:1;stroke-width:0.0706335"
       d="m -52.034254,254.51419 -0.69365,0.0504 c 0.29485,-1.0137 2.66349,-1.29275 3.232,0.0259 l -1.15401,-0.038 c -0.46936,-0.0155 -1.09251,-0.0249 -1.38434,-0.0383 z"
       id="path36" /><path
       style="fill:#f9f9f9;fill-opacity:1;stroke-width:0.0706335"
       d="m -44.546864,253.55098 c 0.54998,-0.032 0.6982,0.48972 0.94784,0.92459 -0.0151,0.013 -0.6383,0.0769 -1.16403,0.0834 l -0.41157,0.0214 -1.03581,-0.003 c 0.25912,-0.46733 0.39624,-0.98936 1.66357,-1.02573 z"
       id="path37" /><path
       style="fill:#f9f9f9;fill-opacity:1;stroke-width:0.0706335"
       d="m -43.023144,254.02746 c 0.13889,-1.00212 1.02513,-1.07192 1.7665,-0.74316 0.44763,0.20625 0.53545,0.27076 0.44002,0.32319 -0.755,0.32852 -1.53669,0.6439 -2.31603,0.80125 z"
       id="path38" /><path
       style="fill:#f9f9f9;fill-opacity:1;stroke-width:0.0998908"
       d="m -58.123854,261.24491 c 0,-0.16223 0.0934,-0.80388 0.2077,-1.42586 0.11424,-0.622 0.29687,-1.82131 0.40585,-2.66515 0.10897,-0.84385 0.40099,-2.71465 0.6489,-4.15736 0.52529,-3.05678 0.75365,-4.87484 0.75365,-6.0001 l 0.0408,-1.40014 0.67427,0.23521 c 1.39957,0.58152 1.92646,0.80166 3.74188,1.58628 -0.88439,3.1406 -2.07194,5.86537 -3.39807,8.59778 -0.96236,2.20396 -2.45002,4.96889 -2.87823,5.3494 -0.19106,0.16978 -0.19684,0.16627 -0.19684,-0.12007 z"
       id="path39" /><path
       style="fill:#000000;fill-opacity:1;stroke:#000000;stroke-width:0.264583;stroke-opacity:1"
       id="path40"
       d="m -35.671454,235.65001 c 0.37559,0.11128 0.76841,0.14645 1.15517,0.19893 0.53444,0.0793 1.07362,0.11143 1.61309,0.12843 0.47849,0.0121 0.95718,0.0125 1.43579,0.0131 0.4373,0.0111 0.86965,-0.0454 1.29221,-0.15425 0.3973,-0.10747 0.75652,-0.31081 1.07999,-0.56138 0.32808,-0.28477 0.64332,-0.58745 0.94878,-0.89677 0.21439,-0.21579 0.45819,-0.3987 0.68929,-0.59567 0.0286,-0.025 0.0573,-0.05 0.086,-0.0749 0,0 -0.41382,-0.25727 -0.41382,-0.25727 v 0 c -0.0282,0.025 -0.0564,0.05 -0.0846,0.075 -0.2305,0.19829 -0.47179,0.38523 -0.68384,0.60384 -0.30334,0.30863 -0.61419,0.61354 -0.94656,0.89048 -0.31997,0.24533 -0.67419,0.44383 -1.0666,0.54688 -0.4212,0.10495 -0.85114,0.15516 -1.28593,0.14424 -0.47673,7.9e-4 -0.95355,0.002 -1.43016,-0.011 -0.53812,-0.0185 -1.07595,-0.0517 -1.609,-0.13145 -0.39196,-0.0545 -0.79121,-0.0943 -1.168,-0.22166 0,0 0.38825,0.3034 0.38825,0.3034 z" /><path
       style="fill:#000000;fill-opacity:1;stroke:#000000;stroke-width:0.264583;stroke-opacity:1"
       id="path41"
       d="m -63.186128,235.03313 c -0.43548,0.009 -0.87108,0.008 -1.30662,0.006 -0.50279,-0.0119 -1.004,0.0345 -1.50576,0.0592 -0.30477,-0.002 -0.61289,0.0463 -0.91751,0.0154 -0.13396,-0.0136 -0.34183,-0.0561 -0.47312,-0.081 -0.3423,-0.0639 -0.65928,-0.20022 -0.96099,-0.37012 -0.0462,-0.026 0.18136,0.108 0.14088,0.0738 -0.0739,-0.0625 -0.16169,-0.10648 -0.24253,-0.15971 -0.42299,-0.34022 -0.89431,-0.60563 -1.3603,-0.88025 0,0 -0.43953,-0.16919 -0.43953,-0.16919 v 0 c 0.4666,0.27537 0.94317,0.53499 1.36455,0.87927 0.58056,0.38681 1.18065,0.77622 1.87511,0.91104 0.14119,0.0259 0.3381,0.0655 0.48151,0.0783 0.30299,0.0271 0.60866,-0.0261 0.91156,-0.0245 0.50307,-0.024 1.0058,-0.064 1.5098,-0.0535 0.44093,-0.002 0.88192,-0.003 1.3228,0.006 0,0 -0.39985,-0.29051 -0.39985,-0.29051 z" /><circle
       id="circle41"
       style="fill:#000000;stroke:#000000;stroke-width:0.264583"
       cx="0.29075015"
       cy="277.52576"
       r="0.0062300521" /><path
       style="fill:#000000;fill-opacity:1;stroke:#000000;stroke-width:0.264583;stroke-opacity:1"
       id="path42"
       d="m -78.173616,213.49486 a 18.60681,19.488474 0 0 1 -6.8e-5,0.0523" /><path
       style="fill:#000000;fill-opacity:1;stroke:none;stroke-width:0.261177;stroke-opacity:1"
       id="path43"
       d="m -14.206234,244.17968 c -0.48478,-2.06504 -1.62519,-6.96211 -1.48619,-8.11174 -0.0849,-0.21698 0.003,-0.41235 0.11662,-0.59732 0.25436,-0.28021 0.56876,-0.49491 0.89515,-0.67631 1.78594,-1.14693 2.62512,-3.2954 4.25861,-4.57124 0.29804,-0.24023 0.5612204,-0.51627 0.7991504,-0.81789 0.18048,-0.2228 0.30155,-0.46739 0.35587,-0.75032 0.0258,-0.2008 0.0351,-0.40661 0.006,-0.60749 -0.11198,-0.4241 -0.64138,-0.5454 -1.0229504,-0.5496 -0.20414,-5e-4 -0.40824,0.004 -0.61234,0.007 -0.1465,-2.4e-4 -0.29305,0.009 -0.43952,0.005 0.22445,0.15262 0.43989,0.32022 0.67334,0.45787 0.0267,0.0157 0.4454,-0.10526 0.48772,-0.11926 0.2575704,-0.10385 0.4990304,-0.25024 0.7165704,-0.425 0.20752,-0.17988 0.40285,-0.37246 0.58794,-0.57629 0.18507,-0.19237 0.36463,-0.39021 0.54427,-0.58812 0.19893,-0.20765 0.30007,-0.46608 0.37681,-0.74117 0.0848,-0.36102 0.13424,-0.7246 0.25099,-1.07696 0.11754,-0.34106 0.29583,-0.6475 0.47853,-0.95412 0.14563,-0.26019 0.32574,-0.49643 0.49107,-0.74314 0.19363,-0.26884 0.38555,-0.53997 0.58858,-0.80143 0.22207,-0.27355 0.44717,-0.54463 0.66827,-0.81901 0.0527,-0.0953 0.17978,-0.1711 0.2016,-0.28608 0.0109,-0.056 -0.0104,-0.11347 -0.0604,-0.14217 -0.24466,-0.14044 -0.49723,-0.26583 -0.74586,-0.39875 -0.20426,-0.0312 -0.41124,-0.006 -0.61576,-0.028 -0.0884,-0.0139 -0.17749,-0.0159 -0.26269,-0.0464 -0.18734,-0.0679 -0.87176,-0.48618 0.40522,0.23533 -0.20321,-0.12873 -0.38015,-0.29432 -0.57496,-0.43487 -0.0246,-0.0405 -0.2148,-0.0979 -0.20792,-0.16554 0.004,-0.0353 0.0459,-0.0534 0.0687,-0.0801 0.18868,-0.19879 0.26705,-0.45093 0.34124,-0.70983 0.0844,-0.25005 0.18334,-0.49452 0.27356,-0.74239 0.0827,-0.26797 0.18593,-0.52859 0.26707,-0.79707 0.0504,-0.18815 0.0834,-0.38779 0.039,-0.58015 -0.19775,-0.37443 -0.63579,-0.51481 -1.02479,-0.52326 -0.25317,-9e-4 -0.5057,0.0198 -0.7584,1.4e-4 -0.22996,-0.0122 -0.44491,-0.0912 -0.64047,-0.2124 0.19209,0.11025 0.38393,0.22098 0.57622,0.33089 0.0296,0.0168 -0.0584,-0.035 -0.0878,-0.0517 -0.24887,-0.14162 -0.49777,-0.28318 -0.74731,-0.42353 -0.43259,-0.24331 0.80519,0.52169 0.38908,0.20413 -0.32652,-0.25872 -0.54433,-0.62475 -0.7718,-0.97106 -0.13018,-0.23366 -0.42872,-0.50194 -0.34648,-0.79932 0.12072,-0.20429 0.3211,-0.33357 0.50846,-0.466 0.24269,-0.16495 0.47877,-0.35388 0.66618,-0.5839 0.028,-0.0446 0.0718,-0.10093 0.0793,-0.15769 0.006,-0.0412 -0.006,-0.10404 -0.0466,-0.12805 -0.68072,-0.40758 -0.46041,-0.36986 -0.80405,-0.41359 -0.21713,-0.0167 -0.435,-0.005 -0.6522204,0.002 -0.44688,0.0124 -0.89392,0.0167 -1.34094,0.0201 -0.34252,-0.0154 -0.6808,0.0254 -1.02088,0.058 -0.48551,0.0432 -0.97291,0.0549 -1.45985,0.0686 -0.56482,0.009 -1.12965,0.0166 -1.69449,0.0234 -0.55399,0.006 -1.10799,0.0113 -1.66199,0.018 -0.54404,0.008 -1.08808,0.0136 -1.63216,0.0188 -0.48654,-0.009 -0.96815,0.008 -1.44652,0.10178 -0.38072,0.0677 -0.74504,0.19719 -1.11027,0.32148 -0.10319,0.0287 -0.21329,0.0523 -0.3162,0.007 -0.0232,-0.01 -0.0856,-0.0547 -0.0632,-0.0426 0.61617,0.33416 0.751,0.52634 0.569,0.28629 -0.0653,-0.13497 -0.0625,-0.28881 -0.0656,-0.43594 -0.002,-0.16583 -0.001,-0.33166 -0.002,-0.49749 -0.006,-0.2198 -0.007,-0.43968 -0.009,-0.65954 -4e-5,-0.0405 1.1e-4,-0.15767 -0.006,-0.19957 -0.0538,-0.35395 -0.61051,-0.54731 -0.94605,-0.53545 -0.34432,1.4e-4 -0.65208,0.13802 -0.95489,0.28942 -0.4733,0.28504 -0.96255,0.53989 -1.44285,0.8119 -0.37753,0.2242 -0.74139,0.47092 -1.11674,0.69889 -0.37623,0.22165 -0.74165,0.46217 -1.10821,0.70035 -0.4115,0.28769 -0.83457,0.55803 -1.2603,0.8229 -0.33655,0.2135 -0.60661,0.50124 -0.81025,0.84726 -0.12757,0.25326 -0.19854,0.5309 -0.2489,0.80988 -0.0224,0.0735 0.006,0.21275 -0.0646,0.26917 -0.0395,0.0319 -0.17491,-0.0847 -0.19599,-0.0975 1.2045,0.72316 -0.0426,-0.0846 -0.28099,-0.24193 -0.53712,-0.36098 -1.10705,-0.66783 -1.66934,-0.98424 -0.41744,-0.19114 -0.83351,-0.38521 -1.25231,-0.57316 -0.53695,-0.23135 -1.08573,-0.43167 -1.62969,-0.64471 -0.50355,-0.17526 -0.97214,-0.42612 -1.43743,-0.68579 0.92233,0.54471 0.37494,0.21164 0.1714,0.0832 l -0.70393,-0.27062 v 0 c 0.36603,0.22846 0.72872,0.46151 1.11372,0.65727 0.46103,0.25687 0.93201,0.49079 1.42913,0.66651 0.54996,0.21476 1.10398,0.41959 1.6438,0.66052 0.41779,0.18852 0.836,0.37622 1.24881,0.57606 -0.15022,-0.0894 -0.30015,-0.17936 -0.45065,-0.26831 -0.0542,-0.032 0.10748,0.0655 0.16161,0.0974 0.2286,0.13532 0.46255,0.26129 0.67966,0.41623 0.51507,0.3467 1.02805,0.69741 1.57391,0.99228 0.29937,0.13416 0.30862,-0.0311 0.33743,-0.2942 0.0416,-0.27193 0.10931,-0.5414 0.22584,-0.79036 0.19438,-0.33841 0.46083,-0.61067 0.78643,-0.81895 0.42234,-0.26901 0.83674,-0.55085 1.25437,-0.82742 0.37003,-0.23365 0.73956,-0.46796 1.11331,-0.69516 0.37278,-0.2287 0.73736,-0.47086 1.10903,-0.70144 0.47763,-0.27691 0.9636,-0.53975 1.44892,-0.80189 0.30102,-0.14211 0.60761,-0.26639 0.94605,-0.25242 0.34752,0.0283 0.16155,0.0328 -0.44433,-0.35022 -0.0177,-0.0112 0.0382,0.0185 0.0528,0.0336 0.0647,0.0673 0.039,0.17046 0.0455,0.25405 0.003,0.21897 0.007,0.43792 0.005,0.65694 10e-4,0.16616 0.002,0.3323 0.002,0.49847 0.001,0.15806 -0.002,0.31954 0.0473,0.47143 0.14066,0.32876 0.0208,0.0864 0.73979,0.5091 0.0419,0.0246 0.12256,0.0316 0.16701,0.0297 0.0991,-0.004 0.13872,-0.0227 0.23529,-0.0512 0.35656,-0.13163 0.7182,-0.24963 1.09157,-0.32083 0.47539,-0.0894 0.95457,-0.0939 1.43695,-0.0927 0.54343,-0.008 1.08684,-0.0151 1.6303,-0.0201 0.55276,-0.007 1.10552,-0.0143 1.65828,-0.0207 0.56478,-0.006 1.12953,-0.0116 1.6942,-0.0243 0.49254,-0.008 0.98536,-0.0198 1.47638,-0.0628 0.33946,-0.0285 0.67822,-0.058 1.0193,-0.0522 0.44759,-0.009 0.8952404,-0.0168 1.3429304,-0.0181 0.21904,3.2e-4 0.44059,-0.009 0.65792,0.0228 0.30009,0.0857 0.0302,0.0151 -0.53027,-0.33658 -0.0162,-0.0101 0.0378,0.007 0.0552,0.0139 0.0446,0.0202 0.0394,0.0359 0.0199,0.0829 -0.0115,0.0276 -0.0293,0.0519 -0.044,0.0779 -0.17937,0.22803 -0.41299,0.40891 -0.65135,0.56764 -0.2029004,0.14247 -0.4164504,0.28173 -0.5419204,0.50637 -0.0113,0.0348 -0.0291,0.0682 -0.0332,0.10461 -0.0321,0.29298 0.25073,0.54185 0.37685,0.76932 0.2255104,0.34203 0.4298704,0.71326 0.7396204,0.98337 0.30376,0.25847 0.0762,0.0733 0.82999,0.51344 0.0289,0.0169 0.11762,0.0633 0.0889,0.0462 -0.1879,-0.11175 -0.37765,-0.22024 -0.56649,-0.33029 -0.029,-0.0169 0.0578,0.0338 0.0867,0.0507 0.24558,0.14227 0.49116,0.28453 0.73674,0.42679 0.20456,0.10796 0.42302,0.17348 0.65454,0.17929 0.25585,0.0104 0.51186,-0.003 0.76781,0.006 0.0534,0.004 0.10883,0.005 0.16125,0.0179 0.0219,0.005 0.0833,0.0334 0.0641,0.0214 -1.09864,-0.67923 -0.73048,-0.45503 -0.52038,-0.29989 0.0781,0.16921 0.0262,0.36641 -0.0102,0.54092 -0.0736,0.26928 -0.17708,0.52773 -0.26197,0.7933 -0.093,0.24888 -0.19005,0.49627 -0.27589,0.74781 -0.071,0.24835 -0.14039,0.49194 -0.33224,0.67444 -0.18464,0.19994 -0.12235,0.23711 0.0863,0.36894 0.20219,0.12995 0.37292,0.30284 0.57404,0.43497 0.42479,0.25071 0.71903,0.51897 1.18758,0.54525 0.20275,0.01 0.40918,-0.009 0.60802,0.0426 -0.19434,-0.11657 -0.39275,-0.22622 -0.58304,-0.34964 -0.0323,-0.0209 0.10093,0.002 0.10762,0.0399 0.0167,0.096 -0.15311,0.20071 -0.17939,0.27475 -0.21878,0.27616 -0.44218,0.54857 -0.66256,0.82333 -0.20643,0.26156 -0.40643,0.5294 -0.59984,0.80109 -0.1675,0.24695 -0.34374,0.48795 -0.4898,0.7494 -0.18207,0.31351 -0.36477,0.62337 -0.47992,0.97174 -0.0503,0.14712 -0.0869,0.24134 -0.12212,0.39282 -0.0526,0.2262 -0.067,0.46158 -0.13922,0.68339 -0.0721,0.2641 -0.17354,0.50752 -0.36159,0.7081 -0.17901,0.1988 -0.36152,0.39385 -0.54625,0.58682 -0.18148,0.20085 -0.37137,0.39298 -0.5777004,0.5672 -0.21578,0.16418 -0.44976,0.30896 -0.70451,0.39974 -0.1369,0.0387 -0.27491,0.0703 -0.41624,0.0871 -0.30035,0.0358 -0.26383,-0.1448 0.51561,0.46383 0.14391,-0.0108 0.2886,-0.003 0.43266,-0.0102 0.20211,-0.005 0.4043804,-0.0119 0.6065704,-0.005 0.0642,0.004 0.12899,0.005 0.19172,0.0226 0.0216,0.006 0.0817,0.0363 0.0627,0.0244 -1.1949304,-0.75549 -0.6636204,-0.50728 -0.5426,-0.28656 0.049,0.18968 0.0277,0.38994 0.012,0.58325 -0.0441,0.2716 -0.1546504,0.50866 -0.3249604,0.72332 -0.23619,0.29458 -0.49474,0.56861 -0.78872,0.80357 -1.78011,1.09081 -2.41988,3.65872 -4.25294,4.56115 -0.33542,0.19041 -0.658,0.41846 -0.92354,0.70376 -0.12508,0.19798 -0.23471,0.42 -0.15507,0.65909 0.40868,1.42172 0.51319,2.94651 0.61772,3.78894 l 1.70589,5.44204 z" /><path
       style="fill:#000000;fill-opacity:1;stroke:none;stroke-width:0.264583;stroke-opacity:1"
       id="path44"
       d="m -90.398934,232.17491 c 0.276262,-0.49433 0.479748,-1.02812 0.681567,-1.5563 0.219218,-0.63768 0.455152,-1.2693 0.681003,-1.90463 0.202853,-0.52646 0.369832,-1.0632 0.48569,-1.61547 0.09527,-0.47317 0.106818,-0.95592 0.112879,-1.43675 0.0041,-0.48873 0.0038,-0.97749 0.0019,-1.46622 -0.0013,-0.47621 -0.0019,-0.95241 -2.65e-4,-1.42861 -5.29e-4,-0.39286 0.0029,-0.78571 0.0041,-1.17857 -0.0075,-0.34777 0.0054,-0.69323 0.04882,-1.03834 0.07502,-0.50394 0.09597,-1.01431 0.117218,-1.52282 0.02413,-0.45895 0.01535,-0.91853 0.01606,-1.37786 -0.006,-0.52439 -0.0026,-1.04874 0.0013,-1.57312 0.01122,-0.48577 -0.120473,-0.96109 -0.218888,-1.43335 -0.10219,-0.46167 -0.163703,-0.92944 -0.2951,-1.38417 -0.167693,-0.46326 -0.328038,-0.92887 -0.488252,-1.39471 -0.110288,-0.35768 -0.23264,-0.71048 -0.366715,-1.05996 -0.172352,-0.38558 -0.248099,-0.79368 -0.304527,-1.20957 -0.05164,-0.43655 -0.07338,-0.8758 -0.07087,-1.31515 0.0095,-0.45349 0.06011,-0.90329 0.121853,-1.35204 0.05462,-0.41868 0.17185,-0.8213 0.306316,-1.21986 0.0731,-0.22103 0.122071,-0.44895 0.183174,-0.67333 0.01855,-0.0628 0.04207,-0.13591 0.123129,-0.12561 0.05054,0.006 0.178766,0.0977 0.133207,0.0749 -0.191561,-0.0959 -0.37787,-0.20186 -0.566803,-0.30279 0.238757,0.21682 0.409122,0.48303 0.565375,0.76127 0.137416,0.23865 0.246941,0.4897 0.350787,0.74411 0.594717,1.01969 0.896236,0.35333 1.142222,-0.0911 0.209621,-0.33859 0.407347,-0.68395 0.609404,-1.02699 0.218377,-0.36576 0.428384,-0.73744 0.620191,-1.11786 0.254667,-0.47472 0.45959,-0.97235 0.674484,-1.46545 0.188283,-0.41043 0.388411,-0.8164 0.604793,-1.21277 0.22801,-0.40776 0.48727,-0.79437 0.696915,-1.21222 0.161314,-0.35287 0.325641,-0.70467 0.444018,-1.07473 0.11135,-0.39774 0.101079,-0.81402 0.110387,-1.22323 0.0043,-0.0688 0.0074,-0.13763 0.01291,-0.20632 0.0044,-0.0548 0.01021,-0.10952 0.01693,-0.16409 0.0046,-0.0376 0.007,-0.0757 0.01709,-0.11223 0.003,-0.0109 0.0312,-0.0214 0.02114,-0.0267 -0.815231,-0.42836 -0.850357,-0.47109 -0.607253,-0.25617 0.234016,0.31062 0.407448,0.66136 0.576186,1.01019 0.185912,0.42162 0.39936,0.82948 0.614453,1.2367 0.232836,0.40083 0.465833,0.80684 0.768058,1.16018 0.560441,0.46628 0.774354,0.67827 1.319104,0.39074 0.252516,-0.157 0.477568,-0.35473 0.706711,-0.54353 0.240199,-0.17918 0.429111,-0.39871 0.585062,-0.65235 0.155115,-0.23105 0.287139,-0.47407 0.413054,-0.72175 0.111599,-0.25057 0.27272,-0.47031 0.447382,-0.67965 0.191931,-0.1858 0.393776,-0.35738 0.56974,-0.55889 0.158364,-0.17366 0.20986,-0.39034 0.263798,-0.61159 0.04251,-0.22029 0.09398,-0.43887 0.134948,-0.65947 0.02312,-0.064 0.02114,-0.17416 0.08593,-0.21856 0.03132,-0.0215 0.0626,0.005 0.0882,0.017 -0.203724,-0.10895 -0.407447,-0.21791 -0.611169,-0.32687 0.22497,0.2413 0.447694,0.4797 0.696111,0.69811 0.286925,0.27224 0.605118,0.50871 0.916493,0.75178 0.375756,0.28018 0.744778,0.56919 1.122529,0.84668 0.340021,0.25921 0.695741,0.49839 1.019247,0.77836 0.311195,0.26444 0.528465,0.61038 0.761206,0.9406 0.103044,0.0813 0.2364,0.40957 0.344511,0.46818 0.245507,0.13308 0.497848,0.25316 0.746771,0.37974 0.191241,-0.15001 0.303858,-0.39124 0.419213,-0.60219 0.110369,-0.21765 0.194681,-0.44638 0.247825,-0.68435 0.04964,-0.11713 -0.02185,-0.33605 0.09222,-0.41585 0.160332,5.3e-4 0.331584,0.0559 0.476557,0.12439 0.451276,0.23279 0.906846,0.45705 1.362099,0.68202 0.300979,0.15498 0.255976,0.12918 0.538403,0.28414 0.0742,0.0407 0.294971,0.16608 0.221943,0.12331 -0.930061,-0.54478 -0.35328,-0.19884 -0.154136,-0.0616 0.384755,0.33657 0.70461,0.743 1.050206,1.1197 0.274743,0.30884 0.553659,0.61737 0.772824,0.96909 0.210809,0.3991 0.334658,0.83866 0.489482,1.26174 0.170444,0.52445 0.40336,1.02509 0.592859,1.54219 0.135753,0.3713 0.209167,0.76037 0.317275,1.13991 0.0953,0.33496 0.191773,0.66954 0.289463,1.00381 0.103645,0.30583 0.243363,0.59756 0.360717,0.89804 0.118578,0.28052 0.198691,0.58706 0.376941,0.83715 0.215064,-0.0978 0.540001,0.47644 0.86764,0.4635 0.236146,-0.009 0.479997,-0.13121 0.692968,-0.2209 0.339614,-0.15405 0.686736,-0.28569 1.038727,-0.40786 0.397375,-0.2011 0.821778,-0.32747 1.255612,-0.42033 0.482758,-0.10933 0.964628,-0.21807 1.454738,-0.28926 0.86648,-0.0948 1.73961,-0.10195 2.61032,-0.10988 0.75295,-0.001 1.50591,-0.003 2.25886,-0.001 0.86457,2.1e-4 1.72822,-0.004 2.59258,0.0203 0.91256,0.0261 1.67568,1.40935 2.58866,1.41725 1.05338,-0.0103 2.6074,1.15494 3.66075,1.16594 0.33936,0.009 2.95713,0.63018 3.29559,0.65788 l 0.67567,-0.20781 -3.94388,-1.05884 c -1.64086,-0.95121 -2.78441,-0.85969 -4.12964,-2.3265 -0.90286,-0.0155 -1.80585,-0.0256 -2.70833,-0.0582 -0.87497,-0.0277 -1.75007,-0.055 -2.62562,-0.0418 -0.74937,7.9e-4 -1.49882,-0.004 -2.24812,0.01 -0.87929,0.0141 -1.76045,0.0215 -2.63671,0.10216 -0.49521,0.0641 -0.978607,0.17903 -1.46516,0.28925 -0.437737,0.0982 -0.866264,0.22749 -1.272934,0.41961 -0.351208,0.12371 -0.695446,0.26391 -1.035981,0.4146 -0.176088,0.0703 -0.353359,0.14671 -0.543581,0.17014 -0.04487,0.006 -0.09078,0.008 -0.135615,0.002 -0.03399,-0.004 -0.126175,-0.0512 -0.09768,-0.0321 0.184341,0.12326 0.378584,0.23102 0.567878,0.34652 -0.211275,-0.21771 -0.275228,-0.54167 -0.389393,-0.81537 -0.117123,-0.29951 -0.263093,-0.58739 -0.365831,-0.89271 -0.09694,-0.33698 -0.20706,-0.6702 -0.300233,-1.00838 -0.107337,-0.38152 -0.179806,-0.7722 -0.315103,-1.14548 -0.193638,-0.51948 -0.443778,-1.0172 -0.607907,-1.54811 -0.145809,-0.4244 -0.265859,-0.86254 -0.462314,-1.26612 -0.213593,-0.36648 -0.5051,-0.67781 -0.787421,-0.9921 -0.203772,-0.21985 -0.408403,-0.43925 -0.601531,-0.66864 -0.124311,-0.14766 -0.156569,-0.20532 -0.287792,-0.33686 -0.04237,-0.0425 -0.08897,-0.0805 -0.133464,-0.12073 -0.595953,-0.42177 -1.250741,-0.75373 -1.898145,-1.08831 -0.466571,-0.23127 -0.929002,-0.4705 -1.395095,-0.70258 -0.162417,-0.0617 -0.376528,-0.1489 -0.540819,-0.057 -0.111461,0.12938 -0.07856,0.30124 -0.107894,0.46043 -0.04521,0.23307 -0.124238,0.45532 -0.231071,0.66762 -0.06816,0.12599 -0.213799,0.41767 -0.326268,0.50181 -0.01635,0.0122 -0.03827,0.0142 -0.05741,0.0213 0.207158,0.12562 0.414957,0.2502 0.621477,0.37687 0.02024,0.0124 -0.04476,-0.0184 -0.06259,-0.0341 -0.128664,-0.11333 -0.181123,-0.30502 -0.30916,-0.42028 -0.238596,-0.33049 -0.450583,-0.68534 -0.758862,-0.95792 -0.316577,-0.29374 -0.683813,-0.52465 -1.024827,-0.78863 -0.375928,-0.27482 -0.740666,-0.56415 -1.11497,-0.84114 -0.310343,-0.24287 -0.630219,-0.47678 -0.916895,-0.74749 -0.245851,-0.21291 -0.479954,-0.43385 -0.675444,-0.69546 -0.516244,-0.29773 -0.837689,-0.74336 -0.98144,-0.12872 -0.03707,0.22018 -0.09159,0.43665 -0.129839,0.65656 -0.05065,0.20786 -0.09934,0.4144 -0.245279,0.57914 -0.176335,0.20081 -0.377341,0.3739 -0.565989,0.56268 -0.181708,0.21176 -0.342344,0.43911 -0.460081,0.69338 -0.123061,0.24647 -0.252431,0.48838 -0.406403,0.71747 -0.154358,0.24418 -0.337696,0.45752 -0.570283,0.63209 -0.225023,0.1861 -0.449678,0.3781 -0.702818,0.52504 -0.09822,0.0459 -0.196548,0.0981 -0.309171,0.0907 -0.03381,-0.002 -0.127309,-0.0406 -0.09935,-0.0215 0.143152,0.098 0.845351,0.51349 0.447823,0.26519 -0.323445,-0.33526 -0.548201,-0.74789 -0.784098,-1.14628 -0.215794,-0.40606 -0.432459,-0.81144 -0.615146,-1.2338 -0.166513,-0.34757 -0.336529,-0.69461 -0.547269,-1.0181 -0.188344,-0.30928 -0.07802,-0.16227 -0.799886,-0.44374 -0.01971,-0.008 -0.02061,0.0377 -0.02469,0.0585 -0.03198,0.1627 -0.0095,0.33542 -0.03212,0.49888 -0.0057,0.40123 -0.009,0.80798 -0.109619,1.19906 -0.112321,0.36862 -0.27535,0.71679 -0.428297,1.06974 -0.205195,0.41888 -0.471766,0.80028 -0.696934,1.20836 -0.221284,0.39672 -0.41515,0.80833 -0.603303,1.22164 -0.215328,0.49109 -0.406834,0.9933 -0.673684,1.46038 -0.197771,0.37558 -0.407234,0.74558 -0.626796,1.10888 -0.203877,0.34225 -0.393004,0.69317 -0.607044,1.02957 -0.03564,0.0599 -0.148653,0.25337 -0.194998,0.31889 -0.02484,0.0351 -0.05018,0.0706 -0.08147,0.10013 -0.0182,0.0172 -0.08471,0.0227 -0.06485,0.038 1.184634,0.91085 0.746654,0.50725 0.569153,0.34119 -0.115242,-0.25402 -0.21272,-0.51568 -0.357511,-0.7558 -0.155657,-0.28152 -0.314719,-0.55558 -0.549608,-0.78143 -0.25409,-0.16069 -0.504648,-0.3271 -0.76227,-0.48207 -0.152024,-0.0915 -0.296166,0.0165 -0.332637,0.16853 -0.05956,0.22443 -0.108735,0.45161 -0.172743,0.6749 -0.122897,0.40697 -0.238927,0.81465 -0.301697,1.23631 -0.07316,0.45127 -0.104034,0.90544 -0.121806,1.36213 -0.02498,0.44469 0.01622,0.8869 0.07071,1.32856 0.0519,0.41776 0.09631,0.8354 0.281889,1.2191 0.137928,0.3485 0.255244,0.702 0.369277,1.05875 0.170836,0.46102 0.330075,0.9265 0.491291,1.39096 0.132022,0.45502 0.214807,0.91824 0.306475,1.38285 0.09328,0.46782 0.226822,0.93577 0.218818,1.41637 0.0047,0.52514 0.0091,1.05026 0.0033,1.57542 7.1e-5,0.45874 -0.0067,0.9174 -0.0136,1.37608 -0.0159,0.50549 -0.03842,1.01204 -0.122634,1.51165 -0.04999,0.34665 -0.07236,0.69467 -0.05832,1.04501 0.0013,0.39432 0.0046,0.78863 0.0044,1.18295 0.0019,0.47672 0.0021,0.95344 0.003,1.43016 2.65e-4,0.48859 0.0051,0.97718 2.65e-4,1.46576 -0.0091,0.47643 -0.01942,0.95482 -0.104892,1.42509 -0.110077,0.55082 -0.275645,1.08524 -0.471797,1.61144 -0.22139,0.6368 -0.461488,1.26673 -0.670147,1.90798 -0.202435,0.51524 -0.401968,1.04696 -0.718431,1.50452 l 0.67622,0.4079 z" /><path
       style="fill:#483737;fill-opacity:1;stroke:none;stroke-width:0.310727;stroke-opacity:1"
       d="m -86.944634,213.44853 c -0.132789,-1.32188 0.0132,-3.03689 0.458402,-4.56639 0.370625,-1.27329 0.654201,-2.46514 0.630159,-2.64855 -0.05594,-0.42675 -0.04263,-0.427 1.42576,-0.0278 l 1.236631,0.33619 0.972318,-1.33085 c 0.534773,-0.73197 1.428636,-1.7845 1.986363,-2.33895 0.773747,-0.7692 0.985051,-1.2293 0.891685,-1.94159 l -0.122363,-0.9335 0.844896,0.50208 c 0.464695,0.27615 1.882266,0.69777 3.150164,0.93697 2.15161,0.40591 2.355398,0.51725 3.057328,1.67037 0.790691,1.29894 1.999491,1.76788 2.676178,1.0382 0.272021,-0.29332 0.486855,-0.0761 0.943872,0.95435 0.562258,1.26775 1.836241,2.98776 1.238271,3.82307 -1.172752,1.63825 -5.083961,2.39206 -6.494888,3.07116 -1.83246,0.88198 -10.044584,12.18697 -11.139483,12.33049 -0.266735,0.035 -0.334576,-3.22664 -0.589099,-5.50622 -0.538373,-2.04564 -0.997015,-3.788 -1.166197,-5.36901 z"
       id="path45" /><path
       style="fill:#241c1c;fill-opacity:1;stroke:none;stroke-width:0.264583;stroke-opacity:1"
       d="m -85.067784,213.8713 c 0.03418,-1.13073 0.34723,-2.56251 0.892366,-3.80456 0.45382,-1.03399 0.825132,-2.00885 0.825132,-2.16636 0,-0.36648 0.01127,-0.36522 1.20681,0.1343 l 1.00685,0.42069 0.968183,-1.016 c 0.5325,-0.5588 1.403645,-1.3485 1.935878,-1.75489 0.73838,-0.56379 0.967695,-0.92885 0.967695,-1.54055 v -0.80167 l 0.65776,0.51739 c 0.36177,0.28457 1.511927,0.79742 2.555909,1.13968 1.771626,0.58081 1.931358,0.69736 2.396366,1.74859 0.523811,1.18416 1.492472,1.71385 2.144532,1.17269 0.262121,-0.21754 0.419463,-0.0104 0.691272,0.91019 0.334402,1.13255 0.320638,1.22531 -0.276651,1.86437 -1.171424,1.25335 -3.65797,2.95731 -4.924332,3.37451 -1.644703,0.54184 -9.829069,9.17754 -10.769346,9.17754 -0.229067,0 0.07461,-2.7612 0.111994,-4.71395 -0.228149,-1.78666 -0.422546,-3.30845 -0.390418,-4.66197 z"
       id="path46" /><path
       style="fill:#483737;fill-opacity:1;stroke:none;stroke-width:0.387113;stroke-opacity:1"
       d="m -18.570084,229.29891 c -1.75213,-1.44575 -6.24816,-8.84318 -6.24816,-10.28027 0,-0.58212 2.78351,-1.84215 4.64369,-2.10208 1.85618,-0.25938 2.00011,-0.21338 1.79804,0.57464 -0.2057,0.80213 -0.0255,0.83749 2.83633,0.55619 3.03693,-0.29853 3.05721,-0.29328 3.24716,0.83925 0.20977,1.25064 1.48459,2.13876 3.1074304,2.16481 l 0.98125,0.0158 -0.74709,0.93134 c -0.41089,0.51223 -0.9449,0.93134 -1.1867004,0.93134 -0.24179,0 -0.43963,0.21309 -0.43963,0.47354 0,0.26045 0.16905,0.47355 0.37567,0.47355 0.2066104,0 0.019,0.58602 -0.41704,1.30225 -0.436,0.71624 -1.02414,1.86225 -1.30701,2.54669 -0.52003,1.2583 -0.54515,1.26948 -4.66426,2.07577 -0.65565,0.12835 -1.46344,-0.0768 -1.97968,-0.50279 z"
       id="path47" /><path
       style="fill:#241c1c;fill-opacity:1;stroke:none;stroke-width:0.323659;stroke-opacity:1"
       d="m -19.065084,229.38754 c -1.46493,-1.20877 -5.22399,-7.39365 -5.22399,-8.59518 0,-0.4867 2.32725,-1.54019 3.88252,-1.75752 1.55192,-0.21686 1.67226,-0.1784 1.50331,0.48045 -0.17198,0.67065 -0.0213,0.70021 2.37142,0.46502 2.53913,-0.24959 2.55608,-0.2452 2.7149,0.70169 0.17538,1.04564 1.24124,1.78818 2.59807,1.80996 l 0.82041,0.0132 -0.62463,0.77868 c -0.34354,0.42827 -0.79002,0.77868 -0.99218,0.77868 -0.20216,0 -0.36757,0.17816 -0.36757,0.39592 0,0.21776 0.14134,0.39593 0.31409,0.39593 0.17275,0 0.0159,0.48996 -0.34868,1.08879 -0.36453,0.59884 -0.85627,1.557 -1.09277,2.12925 -0.43479,1.05205 -0.45579,1.06139 -3.89972,1.73552 -0.54818,0.10731 -1.22356,-0.0642 -1.65518,-0.42037 z"
       id="path48" /><circle
       style="fill:#d7f4ee;fill-opacity:1;stroke:none;stroke-width:0.264583;stroke-opacity:1"
       id="circle48"
       cx="-62.722214"
       cy="230.14296"
       r="1.3213118" /><circle
       style="fill:#d7f4ee;fill-opacity:1;stroke:none;stroke-width:0.264583;stroke-opacity:1"
       id="circle49"
       cx="-33.866585"
       cy="232.36888"
       r="1.3213118" /></g></svg>
